<svg width="57" height="69" viewBox="0 0 57 69" fill="none" xmlns="http://www.w3.org/2000/svg">
<path d="M56.9999 27.3527C57.011 23.1556 56.0105 19.0127 54.0761 15.2461C52.1418 11.4796 49.3259 8.19111 45.8474 5.63642C42.3689 3.08172 38.3216 1.32971 34.0205 0.516729C29.7193 -0.296257 25.2803 -0.148284 21.0486 0.949067C16.8169 2.04642 12.9067 4.06358 9.62216 6.84366C6.33767 9.62373 3.76741 13.0918 2.11137 16.9779C0.455338 20.8641 -0.241826 25.0636 0.074094 29.2498C0.390014 33.436 1.71052 37.496 3.93286 41.1139C5.01304 42.8904 6.39787 44.1366 7.78271 45.9926L24.4008 66.9658C24.8756 67.5955 25.4998 68.1083 26.2221 68.4619C26.9444 68.8156 27.744 69 28.5553 69C29.3666 69 30.1662 68.8156 30.8885 68.4619C31.6108 68.1083 32.235 67.5955 32.7098 66.9658L48.9401 46.4434C50.4139 44.7477 51.7915 42.9775 53.067 41.1404C55.6407 36.9632 56.9987 32.2024 56.9999 27.3527ZM28.4999 39.2313C26.0184 39.2313 23.5927 38.5269 21.5294 37.2071C19.4661 35.8873 17.858 34.0114 16.9083 31.8166C15.9587 29.6218 15.7102 27.2068 16.1944 24.8769C16.6785 22.5469 17.8734 20.4067 19.6281 18.7269C21.3828 17.0471 23.6184 15.9031 26.0522 15.4397C28.486 14.9762 31.0087 15.2141 33.3013 16.1232C35.5939 17.0323 37.5534 18.5718 38.932 20.547C40.3107 22.5223 41.0465 24.8445 41.0465 27.2201C41.0465 30.4057 39.7247 33.4608 37.3717 35.7133C35.0188 37.9659 31.8275 39.2313 28.4999 39.2313Z" fill="#CCA05D"/>
</svg>
