<svg width="27" height="29" viewBox="0 0 27 29" fill="none" xmlns="http://www.w3.org/2000/svg">
<path d="M11.1762 3.15873C11.1762 4.39785 11.1762 5.49883 11.1762 6.53174M11.1762 6.53174L12.639 7.25131M11.1762 6.53174C11.1762 7.59792 11.1762 8.59161 11.1762 9.58993M12.639 7.25131V1M12.639 7.25131L13.4923 7.70105M11.1762 9.58993L13.4923 10.5344M11.1762 9.58993C11.1762 10.6484 11.1762 11.7121 11.1762 12.873M13.4923 7.70105L14.3456 7.25131M13.4923 7.70105V10.5344M14.3456 7.25131L15.9191 6.53174M14.3456 7.25131V1M15.9191 6.53174V3.15873M15.9191 6.53174L15.9043 9.58993M15.9043 9.58993L13.4923 10.5344M15.9043 9.58993L15.8883 12.873M13.4923 10.5344V14.0198M13.4923 26.0502C13.4923 26.0502 13.4923 23.2681 13.4923 20.451M13.4923 26.0502C15.5833 26.1402 18.5566 24.6336 18.5566 24.6336M13.4923 26.0502C11.4754 26.0502 10.0229 25.6243 8.40584 24.6336M13.4923 20.451C13.4923 19.1763 13.4923 17.9792 13.4923 16.8644M13.4923 20.451C14.8823 20.5461 15.4759 20.6458 16.4067 20.8558M13.4923 20.451C11.7934 20.541 11.3651 20.6903 10.6443 20.9008M18.5566 24.6336C18.5566 24.6336 19.8116 23.8409 20.57 23.2169M18.5566 24.6336C18.5566 24.6336 13.766 21.1481 8.40584 24.6336M8.40584 24.6336C5.18514 22.8236 3.49599 19.9242 3.14747 16.8644M13.4923 16.8644C12.4086 16.4857 11.1762 15.9986 11.1762 15.6613C11.1762 15.324 11.1762 13.7362 11.1762 12.873M13.4923 16.8644C14.8232 16.4127 15.4947 16.0661 15.8748 15.6613L15.8883 12.873M13.4923 16.8644C13.4923 15.7535 13.4923 14.0198 13.4923 14.0198M11.1762 12.873L13.4923 14.0198M15.8883 12.873L13.4923 14.0198M6.72144 22.9021L8.09556 21.9801L8.40584 21.8227M8.40584 21.8227C9.21364 21.3922 9.69476 21.1808 10.6443 20.9008M8.40584 21.8227C6.55912 18.3663 5.42002 17.2558 3.14747 16.8644M16.4067 20.8558L17.2046 21.1481L18.5566 21.8227M16.4067 20.8558C17.6959 18.6664 18.6269 17.4318 19.6426 16.5528M10.6443 20.9008C9.41076 18.8839 8.3773 17.5372 7.2312 16.5499M20.57 23.2169L18.5566 21.8227M20.57 23.2169C22.3209 21.5304 23.7453 19.33 23.9644 16.5528M18.5566 21.8227C20.4183 18.1799 21.5043 17.6771 23.9644 16.5528M23.9644 16.5528C23.9644 15.9537 24.0587 15.3096 23.9644 14.3121M7.2312 16.5499C7.43417 15.2336 7.61298 14.582 8.09556 13.6375M7.2312 16.5499C6.57171 15.9819 5.87499 15.5328 5.08137 15.1434M19.6426 16.5528C20.293 15.9898 20.9782 15.5728 21.8145 15.1442M19.6426 16.5528L19.2436 14.8743L18.7782 13.6375M23.9644 14.3121C23.9644 14.3121 22.6541 14.8543 21.8145 15.1442M23.9644 14.3121C23.9644 14.3121 23.7206 11.3889 21.8145 8.98279M21.8145 15.1442C21.5289 14.2924 21.0832 12.873 21.0832 12.873L20.241 11.0516M3.14747 16.8644C3.05292 16.0343 3.04632 15.1923 3.14748 14.3571M5.08137 9.27512C4.01918 10.8177 3.36366 12.572 3.14748 14.3571M3.14748 14.3571C3.86044 14.6026 4.49714 14.8568 5.08137 15.1434M5.08137 15.1434C5.55646 13.1501 5.8675 12.2584 6.49981 11.0516" stroke="#CCA05D" stroke-linecap="round"/>
<path d="M4.12835 6.8916C-3.2963 16.4035 3.57428 28.2315 13.4591 28.2315C23.3438 28.2315 30.3474 16.2236 22.8562 6.8916" stroke="#CCA05D" stroke-linecap="round"/>
</svg>
